<?xml version="1.0" encoding="utf-8"?>
<!-- Generator: Adobe Illustrator 16.0.4, SVG Export Plug-In . SVG Version: 6.00 Build 0)  -->
<!DOCTYPE svg PUBLIC "-//W3C//DTD SVG 1.1//EN" "http://www.w3.org/Graphics/SVG/1.1/DTD/svg11.dtd">
<svg version="1.1" id="Ebene_1" xmlns="http://www.w3.org/2000/svg" xmlns:xlink="http://www.w3.org/1999/xlink" x="0px" y="0px"
	 width="82.645px" height="100px" viewBox="0 0 82.645 100" enable-background="new 0 0 82.645 100" xml:space="preserve">
<path d="M12.547,12.744c-15.892,15.892-15.892,41.657,0,57.549l28.775,28.775l28.774-28.775c15.893-15.892,15.893-41.657,0-57.549
	C54.205-3.147,28.439-3.147,12.547,12.744z M59.246,59.443c-9.898,9.898-25.949,9.898-35.848,0c-9.899-9.9-9.899-25.949,0-35.848
	c9.899-9.899,25.95-9.899,35.848,0C69.145,33.494,69.145,49.543,59.246,59.443z"/>
<g>
	<path fill="#ED1C24" d="M36.605,24.68c0,3.277-0.039,9.804-2.114,14.271c-2.271,4.887-8.117,7.566-9.859,7.583v7.236
		c6.685-0.673,11.228-7.212,12.929-13.559c1.448-5.396,1.272-14.603,1.28-15.531H36.605z"/>
	<path fill="#ED1C24" d="M40.204,24.68c0,0,0.043,12.277-0.265,17.198c-0.534,8.571-2.907,11.892-2.907,11.892h9.311
		c0,0-2.566-3.344-3.151-11.953c-0.341-5.003-0.345-17.137-0.345-17.137H40.204z"/>
	<path fill="#ED1C24" d="M44.188,24.68c0.009,0.928-0.167,10.134,1.28,15.531c1.701,6.346,6.224,12.886,12.909,13.559v-7.236
		c-1.743-0.017-7.571-2.695-9.839-7.583c-2.078-4.467-2.114-10.993-2.114-14.271H44.188z"/>
</g>
</svg>
