<?xml version="1.0" encoding="utf-8"?>
<!-- Generator: Adobe Illustrator 16.0.4, SVG Export Plug-In . SVG Version: 6.00 Build 0)  -->
<!DOCTYPE svg PUBLIC "-//W3C//DTD SVG 1.1//EN" "http://www.w3.org/Graphics/SVG/1.1/DTD/svg11.dtd">
<svg version="1.1" id="Layer_1" xmlns="http://www.w3.org/2000/svg" xmlns:xlink="http://www.w3.org/1999/xlink" x="0px" y="0px"
	 width="100px" height="100px" viewBox="0 0 100 100" enable-background="new 0 0 100 100" xml:space="preserve">
<path fill="#231F20" d="M50.001,0c-19.893,0-36.02,17.104-36.02,36.019c0,26.644,35.279,63.649,36.02,63.978
	c0.739,0.329,36.019-37.334,36.019-63.978C86.02,16.118,69.895,0,50.001,0z M50.001,57.893c-11.808,0-21.381-9.572-21.381-21.378
	c0-11.809,9.573-21.381,21.381-21.381c11.808,0,21.379,9.572,21.379,21.381C71.38,48.321,61.809,57.893,50.001,57.893z"/>
<g>
	<path fill="#221F20" d="M45.883,20.513c0,2.853-0.034,8.533-1.84,12.421c-1.976,4.254-7.065,6.585-8.582,6.6v6.299
		c5.818-0.586,9.772-6.278,11.253-11.802c1.26-4.697,1.108-12.71,1.115-13.518H45.883z"/>
	<path fill="#221F20" d="M49.015,20.513c0,0,0.038,10.687-0.229,14.969c-0.465,7.46-2.53,10.351-2.53,10.351h8.104
		c0,0-2.234-2.911-2.744-10.404c-0.296-4.355-0.299-14.916-0.299-14.916H49.015z"/>
	<path fill="#221F20" d="M52.482,20.513c0.008,0.808-0.145,8.821,1.115,13.518c1.48,5.524,5.416,11.216,11.236,11.802v-6.299
		c-1.518-0.014-6.59-2.346-8.564-6.6c-1.809-3.888-1.84-9.569-1.84-12.421H52.482z"/>
</g>
</svg>
